<svg width="100%" viewBox="200 40 280 240" role="img" xmlns="http://www.w3.org/2000/svg">
  <title>World Models Workshop globe</title>
  <defs>
    <marker id="arrow" viewBox="0 0 10 10" refX="8" refY="5" markerWidth="6" markerHeight="6" orient="auto-start-reverse">
      <path d="M2 1L8 5L2 9" fill="none" stroke="context-stroke" stroke-width="1.5" stroke-linecap="round" stroke-linejoin="round"/>
    </marker>
    <clipPath id="globe-clip">
      <circle cx="340" cy="148" r="72"/>
    </clipPath>
  </defs>

  <circle cx="340" cy="148" r="72" fill="#E6F1FB" stroke="#378ADD" stroke-width="1.5"/>
  <ellipse cx="340" cy="148" rx="72" ry="20" fill="none" stroke="#378ADD" stroke-width="0.8" opacity="0.5" clip-path="url(#globe-clip)"/>
  <ellipse cx="340" cy="123" rx="66" ry="16" fill="none" stroke="#378ADD" stroke-width="0.8" opacity="0.4" clip-path="url(#globe-clip)"/>
  <ellipse cx="340" cy="173" rx="66" ry="16" fill="none" stroke="#378ADD" stroke-width="0.8" opacity="0.4" clip-path="url(#globe-clip)"/>
  <ellipse cx="340" cy="148" rx="22" ry="72" fill="none" stroke="#378ADD" stroke-width="0.8" opacity="0.5" clip-path="url(#globe-clip)"/>
  <ellipse cx="340" cy="148" rx="50" ry="72" fill="none" stroke="#378ADD" stroke-width="0.8" opacity="0.4" clip-path="url(#globe-clip)"/>
  <line x1="268" y1="148" x2="412" y2="148" stroke="#185FA5" stroke-width="1.2" opacity="0.6"/>
  <line x1="340" y1="76" x2="340" y2="220" stroke="#185FA5" stroke-width="1.2" opacity="0.6"/>

  <circle cx="310" cy="131" r="4" fill="#185FA5" opacity="0.85"/>
  <circle cx="355" cy="121" r="4" fill="#185FA5" opacity="0.85"/>
  <circle cx="375" cy="155" r="4" fill="#185FA5" opacity="0.85"/>
  <circle cx="318" cy="167" r="4" fill="#185FA5" opacity="0.85"/>
  <circle cx="348" cy="148" r="5" fill="#0C447C"/>
  <line x1="313" y1="133" x2="350" y2="124" stroke="#185FA5" stroke-width="1" marker-end="url(#arrow)" opacity="0.7"/>
  <line x1="358" y1="125" x2="372" y2="151" stroke="#185FA5" stroke-width="1" marker-end="url(#arrow)" opacity="0.7"/>
  <line x1="370" y1="158" x2="354" y2="150" stroke="#185FA5" stroke-width="1" marker-end="url(#arrow)" opacity="0.7"/>
  <line x1="343" y1="152" x2="322" y2="164" stroke="#185FA5" stroke-width="1" marker-end="url(#arrow)" opacity="0.7"/>

  <circle cx="340" cy="148" r="88" fill="none" stroke="#B5D4F4" stroke-width="1" stroke-dasharray="5 4"/>
  <circle cx="340" cy="60" r="5" fill="#378ADD" opacity="0.85"/>
  <circle cx="428" cy="148" r="5" fill="#378ADD" opacity="0.7"/>
  <circle cx="252" cy="148" r="5" fill="#378ADD" opacity="0.7"/>
</svg>
